<svg xmlns="http://www.w3.org/2000/svg" viewBox="0 0 512 512">
  <defs>
    <linearGradient id="bg" x1="0" y1="0" x2="1" y2="1">
      <stop offset="0%" stop-color="#0f4c2d"/>
      <stop offset="100%" stop-color="#2c7a45"/>
    </linearGradient>
  </defs>
  <rect width="512" height="512" rx="108" fill="url(#bg)"/>
  <circle cx="256" cy="220" r="118" fill="#f5e7c9"/>
  <path d="M154 242c28-58 77-91 102-91 26 0 74 33 103 91l24 73c7 20-8 41-29 41h-15v50c0 12-10 22-22 22h-25c-12 0-22-10-22-22v-42h-29v42c0 12-10 22-22 22h-25c-12 0-22-10-22-22v-50h-15c-21 0-36-21-29-41l26-73Z" fill="#4b2d1a"/>
  <path d="M198 171l-42-46c-10-11-6-30 8-36 9-4 20-1 26 7l35 49M314 171l42-46c10-11 6-30-8-36-9-4-20-1-26 7l-35 49" fill="#4b2d1a"/>
  <circle cx="224" cy="228" r="10" fill="#111827"/>
  <circle cx="288" cy="228" r="10" fill="#111827"/>
  <ellipse cx="256" cy="267" rx="28" ry="22" fill="#f1d7b0"/>
  <path d="M238 289c7 10 18 16 31 16 13 0 24-6 31-16" fill="none" stroke="#111827" stroke-width="10" stroke-linecap="round"/>
  <text x="256" y="462" text-anchor="middle" font-family="Arial, Helvetica, sans-serif" font-size="60" font-weight="700" fill="#ffffff">K</text>
</svg>
